:SAMPLES-PER-SECOND 30
:FRAME-RANGE 1-2045
:FULLY-SPECIFIED
:DEGREES
64
root  20.1291 39.9748 52.7785 148.737 75.2637 137.292
RightUpLeg  -22.2796 -13.7862 -12.8955
RightLeg  41.9342 17.9868 16.2965
RightFoot  -9.15441 -0.54024 24.6466
RightToes  -5.28216e-011 1.2921e-014 -6.02303e-014
Spine  -10.3453 -6.70307 -26.4147
Spine1  11.5267 -10.7867 22.393
HEad  21.7199 -3.36576 -1.27903
LeftShoulder1  1.13272 -1.13489 -19.2423
LeftArm  2.02845 10.6138 -38.7575
LeftForeArm  6.78402 -59.106 -18.5737
LeftHand  0.297927 -0.221019 -6.18334
RightShoulder  1.93001 3.14765 23.7937
RightArm  -5.50525 -16.7043 48.6498
RightForeArm  27.1252 61.2846 18.228
RightHand  -0.0611922 -4.10488 -3.76325
LeftUpLeg  -29.4811 2.59319 -5.83773
LeftLeg  28.7422 -6.75615 -3.68288
LeftFoot  0.265157 2.1899 -21.3453
LeftToes  9.43379e-011 5.24309e-011 -4.66411e-011
65
root  19.9423 39.7984 53.0522 139.377 76.8011 128.385
RightUpLeg  -22.4012 -17.2827 -16.1613
RightLeg  43.1678 18.5936 17.5135
RightFoot  -13.9501 0.494399 25.5159
RightToes  -5.28216e-011 1.2921e-014 -6.02303e-014
Spine  -11.4501 -8.59369 -26.4823
Spine1  13.7447 -12.4707 21.4856
HEad  20.058 4.23426 -2.76625
LeftShoulder1  1.15543 -1.23966 -19.1478
LeftArm  0.559933 14.679 -39.5075
LeftForeArm  8.7504 -61.3782 -20.3734
LeftHand  0.280547 -0.034429 -6.04759
RightShoulder  1.87014 3.17365 22.6853
RightArm  -4.53157 -15.259 47.7194
RightForeArm  28.3988 62.5459 19.225
RightHand  -0.0436037 -4.39041 -2.51475
LeftUpLeg  -26.6133 0.151344 -7.22775
LeftLeg  29.0737 -14.6267 -8.34188
LeftFoot  -0.19759 2.612 -26.3383
LeftToes  9.43379e-011 5.24309e-011 -4.66411e-011
66
root  19.8508 39.5467 53.3803 133.185 78.4374 123.213
RightUpLeg  -19.8474 -21.5838 -19.4952
RightLeg  40.1261 15.017 12.918
RightFoot  -16.931 0.974945 22.0884
RightToes  -5.28216e-011 1.2921e-014 -6.02303e-014
Spine  -11.7048 -9.84734 -25.9442
Spine1  15.012 -13.8693 21.3315
HEad  18.3347 12.1546 -4.30838
LeftShoulder1  1.31104 -1.88415 -18.9806
LeftArm  -0.133534 17.2861 -40.6552
LeftForeArm  9.88566 -62.8435 -21.7281
LeftHand  0.276033 -0.0367427 -5.94758
RightShoulder  1.66584 2.73753 21.2846
RightArm  -3.70041 -14.5886 46.406
RightForeArm  30.2708 65.0311 21.6087
RightHand  -0.0321764 -4.91738 -1.66507
LeftUpLeg  -22.6123 -2.93329 -7.41529
LeftLeg  25.7751 -16.2496 -8.07773
LeftFoot  -0.637287 0.915722 -9.7182
LeftToes  9.43379e-011 5.24309e-011 -4.66411e-011
67
root  19.7849 39.0319 53.7126 128.852 81.37 120.178
RightUpLeg  -16.9869 -22.1227 -21.8306
RightLeg  35.9057 7.43583 5.48149
RightFoot  -13.913 0.317494 18.238
RightToes  -5.28216e-011 1.2921e-014 -6.02303e-014
Spine  -11.9138 -10.0869 -22.5315
Spine1  16.0296 -14.3274 20.5576
HEad  16.2066 20.2064 -5.31657
LeftShoulder1  1.39554 -2.27884 -18.6885
LeftArm  -0.364943 17.8385 -42.0968
LeftForeArm  11.2542 -64.0708 -22.947
LeftHand  0.27086 0.0458664 -5.95044
RightShoulder  1.36126 1.74644 20.5775
RightArm  -3.28525 -14.4536 44.78
RightForeArm  33.9401 68.4133 25.7342
RightHand  -0.0279415 -5.51429 -1.07637
LeftUpLeg  -20.2462 -4.54982 -5.76551
LeftLeg  24.899 -10.3111 -4.87124
LeftFoot  -5.93485 -0.00588068 0.881393
LeftToes  9.43379e-011 5.24309e-011 -4.66411e-011
68
root  19.597 38.4636 54.0393 134.627 83.1388 128.237
RightUpLeg  -12.7327 -21.3238 -24.6202
RightLeg  32.5142 -1.45342 -1.26355
RightFoot  -9.14828 -0.224193 8.44387
RightToes  -5.28216e-011 1.2921e-014 -6.02303e-014
Spine  -9.21461 -10.2494 -18.2404
Spine1  15.4247 -14.7519 19.1949
HEad  14.8289 27.8437 -5.29278
LeftShoulder1  1.29497 -1.91728 -18.4756
LeftArm  0.257115 15.8702 -43.1212
LeftForeArm  11.0775 -64.1713 -23.0886
LeftHand  0.264528 0.0819376 -5.844
RightShoulder  1.25769 1.25927 21.2055
RightArm  -3.51239 -14.6675 42.1273
RightForeArm  37.9874 71.3174 30.6675
RightHand  -0.028873 -5.84619 -0.62331
LeftUpLeg  -19.1929 -8.38288 -3.21658
LeftLeg  27.431 -5.52115 -2.78172
LeftFoot  -11.566 0.0731613 1.87259
LeftToes  9.43379e-011 5.24309e-011 -4.66411e-011
